#!OML:ASF F:\VICON\USERDATA\INSTALL\rory3\rory3.ASF
:FULLY-SPECIFIED
:DEGREES
401
root -0.437166 16.3038 -5.21669 -160.438 -13.6395 179.386
lowerback -16.135 -1.00391 -0.210999
upperback -4.77213 -2.01072 2.12284
thorax 4.04376 -1.25151 1.95005
lowerneck -11.7338 1.44909 -0.807273
upperneck 42.1253 -4.35087 1.42205
head 17.5621 -3.58708 -0.560092
rclavicle -2.43263e-014 1.98785e-014
rhumerus -44.6102 6.3865 -85.6156
rradius 23.0516
rwrist -12.1713
rhand -11.7586 18.2828
rfingers 7.12502
rthumb 14.2897 -11.2055
lclavicle -2.43263e-014 1.98785e-014
lhumerus -47.7929 3.89483 82.3685
lradius 46.8288
lwrist -1.29634
lhand -7.58355 13.2705
lfingers 7.12502
lthumb 18.3095 42.4288
rfemur -45.4578 0.592316 31.1463
rtibia 45.6248
rfoot -51.9093 -31.7021
rtoes 45.751
lfemur -19.1139 11.2151 -27.0746
ltibia 49.554
lfoot -20.0008 11.2444
ltoes -29.5569
402
root -0.42873 16.2993 -5.17473 -160.427 -13.741 179.493
lowerback -16.0226 -1.05899 -0.159559
upperback -4.57932 -2.0672 2.16928
thorax 4.19004 -1.26805 1.95911
lowerneck -12.0273 1.42925 -0.799882
upperneck 42.0442 -4.31687 1.46178
head 17.5923 -3.53621 -0.53437
rclavicle 2.21893e-014 -7.15625e-015
rhumerus -44.2934 6.23328 -85.51
rradius 22.5754
rwrist -11.9072
rhand -11.9357 18.6072
rfingers 7.12502
rthumb 14.119 -10.8931
lclavicle 2.21893e-014 -7.15625e-015
lhumerus -47.4156 4.21179 82.1423
lradius 45.8116
lwrist -1.19815
lhand -8.83313 11.8833
lfingers 7.12502
lthumb 17.1071 41.1502
rfemur -45.6503 0.700874 31.229
rtibia 45.6015
rfoot -51.9857 -31.0643
rtoes 45.9951
lfemur -19.4994 10.6994 -26.9382
ltibia 49.2932
lfoot -21.5261 11.4875
ltoes -29.023
403
root -0.423906 16.3003 -5.1427 -160.544 -13.9606 179.823
lowerback -15.7588 -1.07224 0.156805
upperback -4.45156 -2.11933 2.27722
thorax 4.18 -1.28443 1.88817
lowerneck -12.2417 1.3961 -0.80148
upperneck 42.0015 -4.33994 1.51588
head 17.6266 -3.51778 -0.512306
rclavicle 1.33186e-014 -2.70347e-014
rhumerus -44.052 5.68137 -85.1221
rradius 22.0849
rwrist -11.4638
rhand -12.2402 18.9507
rfingers 7.12502
rthumb 13.8255 -10.5698
lclavicle 1.33186e-014 -2.70347e-014
lhumerus -47.2397 4.49316 81.9349
lradius 45.1131
lwrist -1.29366
lhand -9.45576 11.3171
lfingers 7.12502
lthumb 16.5077 40.6349
rfemur -45.6976 0.457809 31.6772
rtibia 45.5514
rfoot -51.9284 -31.9571
rtoes 44.9098
lfemur -19.8146 10.3824 -26.5383
ltibia 49.0397
lfoot -22.5422 12.3105
ltoes -31.4876
404
root -0.421892 16.3018 -5.113 -160.709 -14.0689 180.011
lowerback -15.1774 -1.09649 0.397349
upperback -4.56985 -2.17839 2.29617
thorax 3.73797 -1.31295 1.7766
lowerneck -12.0244 1.45644 -0.732415
upperneck 42.0382 -4.37381 1.61202
head 17.5949 -3.52868 -0.487887
rclavicle 2.09221e-014 0
rhumerus -44.3327 5.2239 -84.8772
rradius 21.6512
rwrist -10.9163
rhand -12.4852 19.2882
rfingers 7.12502
rthumb 13.5894 -10.2482
lclavicle 2.09221e-014 0
lhumerus -47.5973 4.69193 81.5883
lradius 44.5759
lwrist -1.44749
lhand -10.0849 10.2277
lfingers 7.12502
lthumb 15.9019 39.5948
rfemur -45.6844 0.0616244 32.0046
rtibia 45.5414
rfoot -51.9581 -32.7867
rtoes 42.5508
lfemur -20.0466 9.99403 -26.3303
ltibia 48.752
lfoot -23.6226 13.0265
ltoes -32.8745
405
root -0.420657 16.2988 -5.07995 -160.817 -13.9598 179.768
lowerback -14.6095 -1.14254 0.21147
upperback -4.72164 -2.1909 2.14306
thorax 3.27346 -1.31826 1.73566
lowerneck -11.5816 1.54971 -0.620727
upperneck 42.1279 -4.46493 1.76647
head 17.5386 -3.57066 -0.45624
rclavicle -2.96935e-014 -2.3059e-014
rhumerus -44.7416 4.72474 -84.7222
rradius 21.1464
rwrist -10.4296
rhand -12.6527 19.6759
rfingers 7.12502
rthumb 13.428 -9.8713
lclavicle -2.96935e-014 -2.3059e-014
lhumerus -48.1063 4.91087 81.1002
lradius 43.967
lwrist -1.76576
lhand -10.989 8.63975
lfingers 7.12502
lthumb 15.0311 38.0741
rfemur -45.7221 -0.19374 31.784
rtibia 45.6194
rfoot -50.6465 -32.9558
rtoes 44.0284
lfemur -20.1486 9.53001 -26.6446
ltibia 48.3845
lfoot -24.7644 13.5877
ltoes -33.1603
406
root -0.409836 16.2951 -5.04502 -160.9 -13.9126 179.606
lowerback -14.2482 -1.19801 -0.0928748
upperback -4.71432 -2.20133 2.10806
thorax 3.09572 -1.31675 1.87861
lowerneck -11.3345 1.54251 -0.742814
upperneck 42.0755 -4.56747 1.97819
head 17.4571 -3.61787 -0.351222
rclavicle 1.7344e-014 1.03368e-014
rhumerus -44.8542 4.52071 -84.6169
rradius 20.7801
rwrist -10.321
rhand -12.92 20.0833
rfingers 7.12502
rthumb 13.1703 -9.4807
lclavicle 1.7344e-014 1.03368e-014
lhumerus -48.5371 4.8565 80.9667
lradius 43.8488
lwrist -1.78926
lhand -11.8433 7.57862
lfingers 7.12502
lthumb 14.208 37.0727
rfemur -45.8032 -0.060504 31.5777
rtibia 45.7249
rfoot -50.8346 -33.0338
rtoes 44.3121
lfemur -20.3468 9.17667 -26.8164
ltibia 48.0282
lfoot -25.5583 13.9164
ltoes -33.6057
407
root -0.391183 16.287 -5.00545 -161.025 -13.6905 179.528
lowerback -13.8739 -1.19571 -0.454597
upperback -4.56055 -2.11825 2.12899
thorax 3.06455 -1.26231 2.12604
lowerneck -11.5131 1.44698 -1.0024
upperneck 41.9774 -4.6801 2.20778
head 17.4644 -3.65371 -0.216149
rclavicle 2.77305e-014 -7.95139e-016
rhumerus -44.714 3.964 -84.1817
rradius 20.5579
rwrist -9.99317
rhand -13.0034 20.2002
rfingers 7.12502
rthumb 13.09 -9.36901
lclavicle 2.77305e-014 -7.95139e-016
lhumerus -48.6464 4.64397 81.0701
lradius 43.8773
lwrist -1.74873
lhand -12.7306 7.01816
lfingers 7.12502
lthumb 13.3529 36.5703
rfemur -45.8487 0.611323 31.3202
rtibia 45.8545
rfoot -50.7501 -32.6696
rtoes 46.1771
lfemur -20.5515 9.10209 -26.9145
ltibia 47.6697
lfoot -26.0601 14.1978
ltoes -34.2963
408
root -0.383902 16.2785 -4.9586 -161.158 -13.566 179.565
lowerback -13.9504 -1.23889 -0.582206
upperback -3.99173 -2.10604 2.22549
thorax 3.71028 -1.23453 2.29166
lowerneck -12.2909 1.33956 -1.05759
upperneck 41.8406 -4.59663 2.12174
head 17.5828 -3.56653 -0.227856
rclavicle 9.49197e-015 3.97569e-015
rhumerus -43.7737 3.42499 -83.6439
rradius 20.0731
rwrist -9.80946
rhand -12.7918 19.8255
rfingers 7.12502
rthumb 13.2939 -9.73049
lclavicle 9.49197e-015 3.97569e-015
lhumerus -47.8575 4.78275 81.2502
lradius 43.6773
lwrist -2.03724
lhand -13.5659 7.04783
lfingers 7.12502
lthumb 12.5476 36.6511
rfemur -45.9618 0.56449 31.3691
rtibia 45.9191
rfoot -51.7276 -33.092
rtoes 43.5511
lfemur -20.7081 8.74192 -26.8901
ltibia 47.3627
lfoot -27.0878 13.5674
ltoes -32.6766
409
root -0.389149 16.2786 -4.90985 -161.149 -13.5935 179.474
lowerback -14.4717 -1.31363 -0.555887
upperback -3.1955 -2.14471 2.19553
thorax 4.83201 -1.22982 2.21722
lowerneck -13.3206 1.20543 -0.949377
upperneck 41.6259 -4.49833 1.96399
head 17.717 -3.43111 -0.295957
rclavicle 2.67365e-014 1.43125e-014
rhumerus -42.4487 2.80307 -83.2185
rradius 19.5411
rwrist -9.55573
rhand -12.8151 19.3309
rfingers 7.12502
rthumb 13.2714 -10.2265
lclavicle 2.67365e-014 1.43125e-014
lhumerus -46.4621 5.03744 81.2637
lradius 43.0494
lwrist -2.72697
lhand -14.1954 7.04938
lfingers 7.12502
lthumb 11.9407 36.6888
rfemur -46.236 -0.2867 31.4964
rtibia 45.9573
rfoot -49.7979 -32.8834
rtoes 45.1607
lfemur -21.0059 8.30308 -27.049
ltibia 47.0572
lfoot -27.6798 13.0096
ltoes -31.983
410
root -0.390667 16.2791 -4.86418 -161.229 -13.5221 179.692
lowerback -14.5723 -1.23912 -0.23084
upperback -2.78396 -2.06566 2.19358
thorax 5.30799 -1.17427 2.03989
lowerneck -13.8165 1.08791 -0.969584
upperneck 41.4092 -4.51247 1.9902
head 17.7232 -3.37932 -0.274481
rclavicle 8.19987e-015 2.62396e-014
rhumerus -41.8011 2.01702 -82.7513
rradius 18.9909
rwrist -9.08756
rhand -12.8969 19.5059
rfingers 7.12502
rthumb 13.1925 -10.0567
lclavicle 8.19987e-015 2.62396e-014
lhumerus -45.8394 4.9469 81.2999
lradius 42.6936
lwrist -3.39986
lhand -14.8451 6.90907
lfingers 7.12502
lthumb 11.3142 36.5839
rfemur -46.3986 -0.783644 31.8958
rtibia 45.9468
rfoot -49.1338 -33.556
rtoes 42.3017
lfemur -21.3805 8.14473 -26.9474
ltibia 46.7229
lfoot -27.6215 13.0406
ltoes -33.3897
411
root -0.380659 16.272 -4.8252 -161.483 -13.278 179.934
lowerback -14.2588 -1.18191 -0.194727
upperback -2.59357 -1.98234 2.30149
thorax 5.33735 -1.12626 2.15411
lowerneck -13.8539 1.075 -0.948678
upperneck 41.2377 -4.42757 1.92293
head 17.627 -3.33079 -0.284297
rclavicle 5.56597e-015 -1.59028e-014
rhumerus -41.4759 1.52448 -82.3113
rradius 18.0144
rwrist -8.7477
rhand -13.151 20.869
rfingers 7.12502
rthumb 12.9476 -8.70931
lclavicle 5.56597e-015 -1.59028e-014
lhumerus -45.7394 5.01718 81.3184
lradius 42.3744
lwrist -4.18557
lhand -15.6605 6.31719
lfingers 7.12502
lthumb 10.5277 36.0335
rfemur -46.3058 -0.382745 32.0426
rtibia 45.9397
rfoot -48.4704 -32.9237
rtoes 44.132
lfemur -21.5366 8.21688 -26.754
ltibia 46.3568
lfoot -27.5536 13.1176
ltoes -34.8312
